<svg xmlns="http://www.w3.org/2000/svg" width="258.651" height="56.002" viewBox="0 0 258.651 56.002">
  <g id="header_logo" transform="translate(0 0)">
    <path id="Caminho_1" data-name="Caminho 1" d="M34.2,1.7h0a1.9,1.9,0,0,1,1.9,1.9c0,1.2-1.3,3.4-1.9,4.3-.6-.9-1.9-3.1-1.9-4.3a1.9,1.9,0,0,1,1.9-1.9Zm0,8.8h0c.3,0,.6-.4.7-.5.3-.4,3-4,3-6.4A3.59,3.59,0,0,0,34.3,0a3.67,3.67,0,0,0-3.7,3.6c0,2.3,2.6,6,2.9,6.4C33.6,10,33.9,10.5,34.2,10.5Z" fill="#d62598"/>
    <path id="Caminho_2" data-name="Caminho 2" d="M34.6,43.2h0a99.57,99.57,0,0,0-24.4,3.1H10l.5,1.7h.2a99.55,99.55,0,0,1,23.9-3h.1A97.6,97.6,0,0,1,58,48h.2l.5-1.7h-.2a99,99,0,0,0-23.9-3.1" fill="#d62598"/>
    <path id="Caminho_3" data-name="Caminho 3" d="M11.1,16.2h.7a13.06,13.06,0,0,0-.8,4.3,12,12,0,0,0,2.3,7.1l8.6,10.7a99.5,99.5,0,0,0-10.8,2L3.5,30.9a9.33,9.33,0,0,1,7.6-14.7M34.2,31.4h0a3.59,3.59,0,0,1-3.6-3.6,5,5,0,0,1,.2-1.2l3.4-7.5,3.4,7.4a5.07,5.07,0,0,1,.2,1.3,3.59,3.59,0,0,1-3.6,3.6ZM17.1,22.1h0a2.2,2.2,0,1,0,4.4,0,3.79,3.79,0,0,0-.5-1.6,12.93,12.93,0,0,0-6.7-5.6,10.49,10.49,0,0,1,8.9-5,10.66,10.66,0,0,1,9.9,7L29,25.8a5.82,5.82,0,0,0-.3,1.9,5.3,5.3,0,1,0,10.6,0,4.06,4.06,0,0,0-.4-1.9l-4-8.9h0a10.71,10.71,0,0,1,9.9-7,10.36,10.36,0,0,1,8.9,5,12.53,12.53,0,0,0-6.6,5.5,3.79,3.79,0,0,0-.5,1.6A2.2,2.2,0,1,0,51,22a2.16,2.16,0,0,0-1.5-2.1,9.78,9.78,0,0,1,5-3.5,10.61,10.61,0,0,1-1.1,10.1L44.2,38.1c-1.9-.2-6.1-.5-10.2-.5h.3a98.422,98.422,0,0,0-10.4.6L14.8,26.6a10.26,10.26,0,0,1-1.9-6.1,11,11,0,0,1,.8-4,9.78,9.78,0,0,1,5,3.5,2.22,2.22,0,0,0-1.6,2.1ZM46.5,38.4h0l8.6-10.7a12,12,0,0,0,2.3-7.1,12.6,12.6,0,0,0-.8-4.3h.7A9.33,9.33,0,0,1,64.9,31l-7.6,9.4a104.891,104.891,0,0,0-10.8-2Zm10.8-24a7.57,7.57,0,0,0-1.5.1,12.23,12.23,0,0,0-21.6.4,12.23,12.23,0,0,0-21.6-.4,7.57,7.57,0,0,0-1.5-.1A11.14,11.14,0,0,0,0,25.5a10.67,10.67,0,0,0,2.1,6.4l8.4,10.5h.1a98.81,98.81,0,0,1,23.9-3h.1a97.6,97.6,0,0,1,23.3,3H58l8.3-10.5a11.27,11.27,0,0,0,2-6.4,11,11,0,0,0-11-11.1Z" fill="#d62598"/>
    <path id="Caminho_4" data-name="Caminho 4" d="M151.9,36.6h0l-1-.9a11.47,11.47,0,0,0-1.9-1.6,6.56,6.56,0,0,0-1.7-1,.75.75,0,0,0-.8.1c-.3.2-.3.5-.1.9a5.18,5.18,0,0,0,2.5,2,4.59,4.59,0,0,0,3,.5M147,25.2c0-.1.4-1,1.2-2.8l.8-1.7a4.878,4.878,0,0,1,.3-.7l.2-.2c0-.1.1-.1.1-.2s.3-.3.4-.4a2.13,2.13,0,0,1,2.5.2,6.94,6.94,0,0,1,1.4,1.5,24.89,24.89,0,0,1,2.2,4.6,30.51,30.51,0,0,1,1.6,5.2c.4,2,.5,3.4.1,4.3a10.372,10.372,0,0,1-.4,1l1,.3c2,.7,3.8-.2,5.4-2.6a38.69,38.69,0,0,0,3.4-7.6,1.12,1.12,0,0,1,.7-.8,1.42,1.42,0,0,1,1.1-.1,1.14,1.14,0,0,1,.8.7,1.42,1.42,0,0,1,.1,1.1,35.481,35.481,0,0,1-3.7,8.3c-2.4,3.6-5.4,4.9-8.7,3.8l-.9-.3-1.3-.4a5.12,5.12,0,0,1-2.1,1,7.74,7.74,0,0,1-5.5-.6,8.1,8.1,0,0,1-3.8-3.2,3.73,3.73,0,0,1-.5-2.4,3.21,3.21,0,0,1,1.3-2.3,3.45,3.45,0,0,1,3.4-.6,9.11,9.11,0,0,1,2.8,1.4c.6.5,1.3,1.1,2.1,1.9a6.6,6.6,0,0,0,1.2,1.1c.1.1.2.1.3.2a3.7,3.7,0,0,0,.5-1.1,7.58,7.58,0,0,0-.3-2.6,40.76,40.76,0,0,0-1.4-4.8,25.459,25.459,0,0,0-1.9-4l-.4,1c-.8,1.9-1.2,2.9-1.3,3a1.34,1.34,0,0,1-.8.7,1.38,1.38,0,0,1-1.1-.1,1.34,1.34,0,0,1-.7-.8.76.76,0,0,1-.1-1Z" fill="#d62598"/>
    <path id="Caminho_5" data-name="Caminho 5" d="M176.4,34.4h0a11.93,11.93,0,0,0,1.3-5.4,11.12,11.12,0,0,0-1.1-5.9c-.3-.6-.6-.9-1-1a1.17,1.17,0,0,0-1.1.2.1.1,0,0,0-.1.1,5.9,5.9,0,0,1-.4.8,8.1,8.1,0,0,0-.5,5.6,15,15,0,0,0,2.9,5.6m-2,2.2h0l-.2-.2a14.14,14.14,0,0,1-2.8-4.8,15.11,15.11,0,0,1-1-5.4,23.29,23.29,0,0,0-1.4,3.3,10.71,10.71,0,0,0-.4,5.2,3,3,0,0,0,2.5,2.3,4.65,4.65,0,0,0,3.3-.4Zm1.8-17.5.5.2a5,5,0,0,1,2.5,2.3,14.39,14.39,0,0,1,1.5,7.5,14.82,14.82,0,0,1-2,7.2,3.32,3.32,0,0,0,1.6.5c1.3.1,2.5-.8,3.5-2.6a8.261,8.261,0,0,0,.7-1.3,9.737,9.737,0,0,0,.5-1.1c.1-.3.2-.7.4-1.2a3.632,3.632,0,0,0,.3-1.1,6.3,6.3,0,0,0,.3-1.3c.1-.7.3-1.1.3-1.4a1.46,1.46,0,0,1,.6-.9,1.39,1.39,0,0,1,1.1-.2,1.27,1.27,0,0,1,.9.7,1.39,1.39,0,0,1,.2,1.1,7,7,0,0,1-.3,1.4,7,7,0,0,0-.3,1.4,8.571,8.571,0,0,0-.3,1.3,7.171,7.171,0,0,1-.5,1.4,4.879,4.879,0,0,1-.6,1.3c-.2.5-.5,1-.7,1.5q-2.4,4.35-6.3,4.2a8.13,8.13,0,0,1-3.5-1.2,7.37,7.37,0,0,1-6.2,1.3,5.76,5.76,0,0,1-4.8-4.4,12.42,12.42,0,0,1,.4-6.8,18.56,18.56,0,0,1,3.3-6.4,9,9,0,0,1,5.4-3.6A1.07,1.07,0,0,1,176.2,19.1Z" fill="#d62598"/>
    <path id="Caminho_6" data-name="Caminho 6" d="M187.9,34.8h0a.6.6,0,0,1,.4.1c3.7,1.3,6.3.9,7.9-1.1a6.94,6.94,0,0,0,1.3-3.4,10.691,10.691,0,0,0-.2-4,8.57,8.57,0,0,0-1.3-3.2,2.79,2.79,0,0,0-1.7-1.3,2.54,2.54,0,0,0-2.1,1,15.61,15.61,0,0,0-3.4,5.3,1.79,1.79,0,0,1-.5.7c-.1,1.1-.2,2-.2,2.8Zm6.8,3.5a11.88,11.88,0,0,1-6.9-.4c0,1.6-.1,4.2-.1,8s0,6.6-.1,8.7a1.39,1.39,0,0,1-.5,1,1.5,1.5,0,0,1-1.1.4,1.39,1.39,0,0,1-1-.5,1.5,1.5,0,0,1-.4-1.1c0-1.8.1-5.4.1-10.6s.1-9.3.3-12.2c0-.9.2-2.4.4-4.5s.3-3.7.4-4.8a1.39,1.39,0,0,1,.5-1,1.5,1.5,0,0,1,1.1-.4,1.37,1.37,0,0,1,1.4,1.4c.5-.6.9-1.1,1.4-1.6,1.5-1.4,3-2,4.5-1.7a5.12,5.12,0,0,1,3.5,2.3,11.36,11.36,0,0,1,1.9,4.5,12.06,12.06,0,0,1,.3,4.7A12.51,12.51,0,0,1,199,35a5.2,5.2,0,0,0,2.8-1.6,7,7,0,0,0,.6-.9,4.05,4.05,0,0,0,.5-.9c.1-.3.3-.7.5-1.3s.4-1,.5-1.3.3-.9.6-1.7a18.331,18.331,0,0,0,.6-1.9c.1-.4.4-.6.8-.8a1.42,1.42,0,0,1,1.1-.1,1.14,1.14,0,0,1,.8.7,1.42,1.42,0,0,1,.1,1.1l-.5,1.7-.7,1.7-.5,1.5a11.641,11.641,0,0,1-.6,1.5,7.459,7.459,0,0,1-.7,1.2,12.492,12.492,0,0,1-.8,1.2,8.18,8.18,0,0,1-3.6,2.4A16.59,16.59,0,0,1,194.7,38.3Z" fill="#d62598"/>
    <path id="Caminho_7" data-name="Caminho 7" d="M207.9,16.8h0a1.54,1.54,0,0,0,.4-.6,16.65,16.65,0,0,0,1.4-2.3,21.49,21.49,0,0,0,1.3-3.2,7,7,0,0,0,.5-2.9,1,1,0,0,0-.5-1c-.5-.2-1.1.3-1.6,1.5a11.16,11.16,0,0,0-1,3.9c-.2,1.5-.4,3-.5,4.6m-3.6,20.9c0-1.4.1-2.2.1-2.5,0-.8.1-1.4.1-1.8a163.006,163.006,0,0,1,1.1-20.9,19.461,19.461,0,0,1,1.5-5.3,6.89,6.89,0,0,1,2.2-2.8,3.35,3.35,0,0,1,3.4-.3c1.6.5,2.4,1.7,2.6,3.6a11.25,11.25,0,0,1-.7,4.5,37.89,37.89,0,0,1-1.8,4.2,22.131,22.131,0,0,1-1.9,3.1,7.87,7.87,0,0,1-1.6,1.6c-.2.1-.7.4-1.4.7-.1,1.3-.1,2.8-.2,4.3l.6-1a15.08,15.08,0,0,1,3.1-3.7c1.5-1.2,3-1.7,4.4-1.3s2.4,1.7,2.7,4.1c.1.9.1,2.7.1,5.5a27.729,27.729,0,0,0,.3,4.9c.2.9.6,1.4,1,1.4,1.2.1,2.4-.8,3.7-2.9a21.722,21.722,0,0,0,1.6-3.6c.2-.5.4-1.3.8-2.5l.9-2.7a1.46,1.46,0,0,1,2.7,0,1.08,1.08,0,0,1,0,1.1c-.2.5-.4,1.4-.8,2.5a14,14,0,0,1-.9,2.7,25.458,25.458,0,0,1-1.9,4c-1.9,3.1-4.1,4.6-6.5,4.3-1.9-.2-3-1.5-3.6-3.7a26.111,26.111,0,0,1-.4-5.6,24.15,24.15,0,0,0-.1-5.1c-.1-1.1-.3-1.6-.5-1.6a2.12,2.12,0,0,0-1.7.7,14.5,14.5,0,0,0-2.5,3.1,27.537,27.537,0,0,0-2,3.8,12.61,12.61,0,0,0-1.1,3v4.4a1.37,1.37,0,0,1-1.4,1.4,1.46,1.46,0,0,1-1.3-.7.84.84,0,0,1-.6-.9Z" fill="#d62598"/>
    <path id="Caminho_8" data-name="Caminho 8" d="M230.5,12.2h0a1.28,1.28,0,0,1,.4,1,1.384,1.384,0,1,1-.4-1m-.3,9.1c0,.3-.2,1.4-.5,3.4-.3,1.8-.6,3.4-.7,4.8a42.231,42.231,0,0,0-.3,4.3,4.8,4.8,0,0,0,.4,2.1c.2.3.4.4.5.4a1.69,1.69,0,0,0,.5-.2,8.71,8.71,0,0,0,2.3-3.3,79.739,79.739,0,0,0,3.2-8.1c.1-.4.4-.6.8-.8a1.42,1.42,0,0,1,1.1-.1,1.14,1.14,0,0,1,.8.7,1.42,1.42,0,0,1,.1,1.1,76.607,76.607,0,0,1-3.4,8.5,13.569,13.569,0,0,1-3.2,4.3,3.56,3.56,0,0,1-2.5.8,3.78,3.78,0,0,1-2.5-1.4,6.44,6.44,0,0,1-1.2-3.9c0-1.3.1-2.9.3-4.9.1-1.2.4-2.8.7-4.8s.5-3.1.5-3.3a1.7,1.7,0,0,1,.6-1,2,2,0,0,1,1.1-.3,1.91,1.91,0,0,1,1,.5,2.13,2.13,0,0,1,.4,1.2Z" fill="#d62598"/>
    <path id="Caminho_9" data-name="Caminho 9" d="M244.8,24.6h0c0-.3-.1-.7-.2-1.4a2,2,0,0,0-.1-.5q0-.15-.9-.6a2.42,2.42,0,0,0-2.8.2,9,9,0,0,0-2.6,4,15.751,15.751,0,0,0-1.3,5.5,5.23,5.23,0,0,0,.7,3.5c.5.6,1.1.9,1.5.7a4.55,4.55,0,0,0,2-1.8,16.879,16.879,0,0,0,1.9-3.3,15.428,15.428,0,0,0,1.2-3c0-.1.1-.3.1-.4v-.4c.1-.9.2-1.7.3-2.3.2.1.2,0,.2-.2.1.1.1,0,0,0m2.8-1.5a.1.1,0,0,1,.1.1,1.61,1.61,0,0,1,.5,1.1,2.34,2.34,0,0,1-.2,1.1,2.6,2.6,0,0,1-.3.7l-.1.3-.3,1.8c-.1.6-.1,1.2-.2,1.9a8.333,8.333,0,0,0-.1,1.2,11.211,11.211,0,0,0,.4,3.5,2.69,2.69,0,0,0,1.8,1.8,2.14,2.14,0,0,0,2-.5,9.66,9.66,0,0,0,2-3,32.6,32.6,0,0,0,1.5-4.2c.7-2.2,1.1-3.4,1.1-3.6a1.46,1.46,0,0,1,2.7,0,1.08,1.08,0,0,1,0,1.1c0,.1-.4,1.3-1,3.4a39.843,39.843,0,0,1-1.6,4.6,11.61,11.61,0,0,1-2.7,4,4.83,4.83,0,0,1-4.7,1.1,5.43,5.43,0,0,1-3.8-3.7,9.436,9.436,0,0,1-.3-.9c-.3.5-.6,1-.9,1.4a6.63,6.63,0,0,1-3.6,2.8,4.19,4.19,0,0,1-4.6-1.7c-1-1.2-1.5-3-1.4-5.5a18.63,18.63,0,0,1,1.5-6.4,11,11,0,0,1,3.6-5.2,5.12,5.12,0,0,1,6-.5,5,5,0,0,1,2.2,2.1,10.379,10.379,0,0,1,.3,1.2h.1Z" fill="#d62598"/>
    <path id="Caminho_10" data-name="Caminho 10" d="M87.3,21.1a7.26,7.26,0,0,1,5.8,2.6c.2.3.3.4.3.7a1.11,1.11,0,0,1-1.1,1.1,1.09,1.09,0,0,1-.9-.4,5,5,0,0,0-4-1.8c-3.4,0-5.3,2.2-5.3,6.8S83.9,37,87.4,37a6.67,6.67,0,0,0,4.3-1.6c.3-.2.4-.3.7-.3a1.11,1.11,0,0,1,1.1,1.1,1.06,1.06,0,0,1-.5.9,8.36,8.36,0,0,1-5.7,2c-4.8,0-7.7-2.9-7.7-9s2.8-9,7.7-9" fill="gray"/>
    <path id="Caminho_11" data-name="Caminho 11" d="M98.5,13.1V34.5c0,1.5.5,2.1,1.5,2.1a1.1,1.1,0,0,1,0,2.2c-2.5,0-3.9-1.5-3.9-4.4V13.1a1.2,1.2,0,1,1,2.4,0" fill="gray"/>
    <path id="Caminho_12" data-name="Caminho 12" d="M105.9,37.7h0a1.2,1.2,0,1,1-2.4,0V22.5a1.2,1.2,0,1,1,2.4,0Zm-2.6-21.4c0-1.1.5-1.5,1.4-1.5s1.4.4,1.4,1.5a1.27,1.27,0,0,1-1.4,1.4c-.9.1-1.4-.5-1.4-1.4Z" fill="gray"/>
    <path id="Caminho_13" data-name="Caminho 13" d="M116.6,21.1a7.26,7.26,0,0,1,5.8,2.6c.2.3.3.4.3.7a1.11,1.11,0,0,1-1.1,1.1,1.09,1.09,0,0,1-.9-.4,5,5,0,0,0-4-1.8c-3.4,0-5.3,2.2-5.3,6.8s1.8,6.9,5.3,6.9a6.67,6.67,0,0,0,4.3-1.6c.3-.2.4-.3.7-.3a1.11,1.11,0,0,1,1.1,1.1,1.06,1.06,0,0,1-.5.9,8.36,8.36,0,0,1-5.7,2c-4.8,0-7.7-2.9-7.7-9s2.9-9,7.7-9" fill="gray"/>
    <path id="Caminho_14" data-name="Caminho 14" d="M136.7,38.3l-6.6-8.5-2.3,1.8v6a1.2,1.2,0,0,1-2.4,0V13.1a1.2,1.2,0,1,1,2.4,0V28.8l8.8-7.2a1,1,0,0,1,.8-.3,1.16,1.16,0,0,1,1.2,1.2,1.22,1.22,0,0,1-.5,1L132,28.4l6.7,8.6a1.33,1.33,0,0,1,.3.8,1.16,1.16,0,0,1-1.2,1.2,1.9,1.9,0,0,1-1.1-.7" fill="gray"/>
  </g>
</svg>
