<svg width="295" height="79" viewBox="0 0 295 79" fill="none" xmlns="http://www.w3.org/2000/svg">
<path d="M36.4698 41.2308C35.5418 41.3268 34.7498 41.4308 34.0938 41.5428C33.4378 41.6548 32.9018 41.7988 32.4858 41.9748C32.0698 42.1348 31.7658 42.3428 31.5738 42.5988C31.3818 42.8388 31.2858 43.1348 31.2858 43.4868C31.2858 43.9508 31.4698 44.3508 31.8378 44.6868C32.2058 45.0228 32.7658 45.1908 33.5178 45.1908C34.5578 45.1908 35.3098 44.9028 35.7738 44.3268C36.2378 43.7508 36.4698 42.9348 36.4698 41.8788V41.2308ZM36.7338 45.4788C36.2698 46.1668 35.6938 46.6708 35.0058 46.9908C34.3338 47.2948 33.5098 47.4468 32.5338 47.4468C31.9098 47.4468 31.3178 47.3588 30.7578 47.1828C30.1978 47.0068 29.7018 46.7588 29.2698 46.4388C28.8538 46.1188 28.5178 45.7268 28.2618 45.2628C28.0058 44.7828 27.8778 44.2548 27.8778 43.6788C27.8778 42.9108 28.0778 42.2708 28.4778 41.7588C28.8938 41.2308 29.4698 40.7988 30.2058 40.4628C30.9578 40.1268 31.8538 39.8548 32.8938 39.6468C33.9498 39.4388 35.1098 39.2628 36.3738 39.1188V38.8788C36.3738 38.3828 36.3098 37.9668 36.1818 37.6308C36.0538 37.2788 35.8778 36.9988 35.6538 36.7908C35.4458 36.5828 35.1898 36.4388 34.8858 36.3588C34.5818 36.2628 34.2538 36.2148 33.9018 36.2148C33.1818 36.2148 32.5818 36.3828 32.1018 36.7188C31.6378 37.0548 31.3898 37.5828 31.3578 38.3028H28.2618C28.3258 37.6628 28.5018 37.0788 28.7898 36.5508C29.0938 36.0068 29.4938 35.5428 29.9898 35.1588C30.5018 34.7588 31.0938 34.4468 31.7658 34.2228C32.4538 33.9988 33.2058 33.8868 34.0218 33.8868C34.8218 33.8868 35.5658 33.9828 36.2538 34.1748C36.9418 34.3508 37.5418 34.6548 38.0538 35.0868C38.5658 35.5188 38.9658 36.1028 39.2538 36.8388C39.5418 37.5588 39.6858 38.4628 39.6858 39.5508C39.6858 39.6468 39.6778 39.8228 39.6618 40.0788C39.6618 40.3188 39.6618 40.5988 39.6618 40.9188C39.6618 41.2388 39.6538 41.5748 39.6378 41.9268C39.6378 42.2628 39.6378 42.5748 39.6378 42.8628C39.6378 43.8868 39.6698 44.7188 39.7338 45.3588C39.7978 45.9988 39.8938 46.5908 40.0218 47.1348H36.9738C36.9258 46.9268 36.8778 46.6788 36.8298 46.3908C36.7978 46.1028 36.7658 45.7988 36.7338 45.4788ZM44.7969 29.7348V32.8068H41.4849V29.7348H44.7969ZM41.4849 34.2228H44.7969V47.0388C44.7969 47.9348 44.7329 48.6628 44.6049 49.2228C44.4769 49.7828 44.2529 50.2148 43.9329 50.5188C43.6129 50.8388 43.1809 51.0548 42.6369 51.1668C42.1089 51.2788 41.4369 51.3348 40.6209 51.3348H39.7569V48.8628H40.1889C40.4929 48.8628 40.7329 48.8308 40.9089 48.7668C41.0849 48.7028 41.2129 48.5988 41.2929 48.4548C41.3889 48.3108 41.4449 48.1188 41.4609 47.8788C41.4769 47.6388 41.4849 47.3428 41.4849 46.9908V34.2228ZM54.7501 45.4308C54.3821 46.0868 53.8621 46.5908 53.1901 46.9428C52.5181 47.2788 51.7821 47.4468 50.9821 47.4468C49.4301 47.4468 48.3181 46.9988 47.6461 46.1028C46.9741 45.2068 46.6381 43.9668 46.6381 42.3828V34.2228H49.9501V41.6628C49.9501 42.0948 49.9741 42.5028 50.0221 42.8868C50.0701 43.2548 50.1661 43.5828 50.3101 43.8708C50.4541 44.1588 50.6621 44.3828 50.9341 44.5428C51.2221 44.7028 51.5981 44.7828 52.0621 44.7828C52.6061 44.7828 53.0541 44.6788 53.4061 44.4708C53.7581 44.2628 54.0301 43.9828 54.2221 43.6308C54.4301 43.2788 54.5661 42.8708 54.6301 42.4068C54.7101 41.9428 54.7501 41.4548 54.7501 40.9428V34.2228H58.0621V47.1348H54.7501V45.4308ZM68.4967 47.1348V45.5028C68.0807 46.2228 67.5207 46.7268 66.8167 47.0148C66.1287 47.3028 65.4487 47.4468 64.7767 47.4468C63.9767 47.4468 63.2407 47.2868 62.5687 46.9668C61.8967 46.6468 61.3127 46.1988 60.8167 45.6228C60.3207 45.0308 59.9287 44.3188 59.6407 43.4868C59.3687 42.6548 59.2327 41.7188 59.2327 40.6788C59.2327 39.6708 59.3687 38.7508 59.6407 37.9188C59.9127 37.0868 60.2967 36.3748 60.7927 35.7828C61.2887 35.1908 61.8727 34.7348 62.5447 34.4148C63.2327 34.0948 63.9767 33.9348 64.7767 33.9348C65.5927 33.9348 66.3287 34.1108 66.9847 34.4628C67.6407 34.7988 68.1447 35.2708 68.4967 35.8788V29.7348H71.8087V47.1348H68.4967ZM65.5927 44.9028C66.5047 44.9028 67.2327 44.5348 67.7767 43.7988C68.3367 43.0468 68.6167 42.0068 68.6167 40.6788C68.6167 39.3828 68.3367 38.3588 67.7767 37.6068C67.2327 36.8548 66.5047 36.4788 65.5927 36.4788C64.6807 36.4788 63.9687 36.8708 63.4567 37.6548C62.9607 38.4228 62.7127 39.4388 62.7127 40.7028C62.7127 41.9668 62.9607 42.9828 63.4567 43.7508C63.9687 44.5188 64.6807 44.9028 65.5927 44.9028ZM81.8954 41.2308C80.9674 41.3268 80.1754 41.4308 79.5194 41.5428C78.8634 41.6548 78.3274 41.7988 77.9114 41.9748C77.4954 42.1348 77.1914 42.3428 76.9994 42.5988C76.8074 42.8388 76.7114 43.1348 76.7114 43.4868C76.7114 43.9508 76.8954 44.3508 77.2634 44.6868C77.6314 45.0228 78.1914 45.1908 78.9434 45.1908C79.9834 45.1908 80.7354 44.9028 81.1994 44.3268C81.6634 43.7508 81.8954 42.9348 81.8954 41.8788V41.2308ZM82.1594 45.4788C81.6954 46.1668 81.1194 46.6708 80.4314 46.9908C79.7594 47.2948 78.9354 47.4468 77.9594 47.4468C77.3354 47.4468 76.7434 47.3588 76.1834 47.1828C75.6234 47.0068 75.1274 46.7588 74.6954 46.4388C74.2794 46.1188 73.9434 45.7268 73.6874 45.2628C73.4314 44.7828 73.3034 44.2548 73.3034 43.6788C73.3034 42.9108 73.5034 42.2708 73.9034 41.7588C74.3194 41.2308 74.8954 40.7988 75.6314 40.4628C76.3834 40.1268 77.2794 39.8548 78.3194 39.6468C79.3754 39.4388 80.5354 39.2628 81.7994 39.1188V38.8788C81.7994 38.3828 81.7354 37.9668 81.6074 37.6308C81.4794 37.2788 81.3034 36.9988 81.0794 36.7908C80.8714 36.5828 80.6154 36.4388 80.3114 36.3588C80.0074 36.2628 79.6794 36.2148 79.3274 36.2148C78.6074 36.2148 78.0074 36.3828 77.5274 36.7188C77.0634 37.0548 76.8154 37.5828 76.7834 38.3028H73.6874C73.7514 37.6628 73.9274 37.0788 74.2154 36.5508C74.5194 36.0068 74.9194 35.5428 75.4154 35.1588C75.9274 34.7588 76.5194 34.4468 77.1914 34.2228C77.8794 33.9988 78.6314 33.8868 79.4474 33.8868C80.2474 33.8868 80.9914 33.9828 81.6794 34.1748C82.3674 34.3508 82.9674 34.6548 83.4794 35.0868C83.9914 35.5188 84.3914 36.1028 84.6794 36.8388C84.9674 37.5588 85.1114 38.4628 85.1114 39.5508C85.1114 39.6468 85.1034 39.8228 85.0874 40.0788C85.0874 40.3188 85.0874 40.5988 85.0874 40.9188C85.0874 41.2388 85.0794 41.5748 85.0634 41.9268C85.0634 42.2628 85.0634 42.5748 85.0634 42.8628C85.0634 43.8868 85.0954 44.7188 85.1594 45.3588C85.2234 45.9988 85.3194 46.5908 85.4474 47.1348H82.3994C82.3514 46.9268 82.3034 46.6788 82.2554 46.3908C82.2234 46.1028 82.1914 45.7988 82.1594 45.4788ZM96.3806 43.7748L99.4046 34.2228H102.693L98.0606 47.1348H94.5806L89.8766 34.2228H93.3566L96.3806 43.7748ZM106.537 34.2228V47.1348H103.225V34.2228H106.537ZM106.537 29.7348V32.8068H103.225V29.7348H106.537ZM116.61 41.2308C115.682 41.3268 114.89 41.4308 114.234 41.5428C113.578 41.6548 113.042 41.7988 112.626 41.9748C112.21 42.1348 111.906 42.3428 111.714 42.5988C111.522 42.8388 111.426 43.1348 111.426 43.4868C111.426 43.9508 111.61 44.3508 111.978 44.6868C112.346 45.0228 112.906 45.1908 113.658 45.1908C114.698 45.1908 115.45 44.9028 115.914 44.3268C116.378 43.7508 116.61 42.9348 116.61 41.8788V41.2308ZM116.874 45.4788C116.41 46.1668 115.834 46.6708 115.146 46.9908C114.474 47.2948 113.65 47.4468 112.674 47.4468C112.05 47.4468 111.458 47.3588 110.898 47.1828C110.338 47.0068 109.842 46.7588 109.41 46.4388C108.994 46.1188 108.658 45.7268 108.402 45.2628C108.146 44.7828 108.018 44.2548 108.018 43.6788C108.018 42.9108 108.218 42.2708 108.618 41.7588C109.034 41.2308 109.61 40.7988 110.346 40.4628C111.098 40.1268 111.994 39.8548 113.034 39.6468C114.09 39.4388 115.25 39.2628 116.514 39.1188V38.8788C116.514 38.3828 116.45 37.9668 116.322 37.6308C116.194 37.2788 116.018 36.9988 115.794 36.7908C115.586 36.5828 115.33 36.4388 115.026 36.3588C114.722 36.2628 114.394 36.2148 114.042 36.2148C113.322 36.2148 112.722 36.3828 112.242 36.7188C111.778 37.0548 111.53 37.5828 111.498 38.3028H108.402C108.466 37.6628 108.642 37.0788 108.93 36.5508C109.234 36.0068 109.634 35.5428 110.13 35.1588C110.642 34.7588 111.234 34.4468 111.906 34.2228C112.594 33.9988 113.346 33.8868 114.162 33.8868C114.962 33.8868 115.706 33.9828 116.394 34.1748C117.082 34.3508 117.682 34.6548 118.194 35.0868C118.706 35.5188 119.106 36.1028 119.394 36.8388C119.682 37.5588 119.826 38.4628 119.826 39.5508C119.826 39.6468 119.818 39.8228 119.802 40.0788C119.802 40.3188 119.802 40.5988 119.802 40.9188C119.802 41.2388 119.794 41.5748 119.778 41.9268C119.778 42.2628 119.778 42.5748 119.778 42.8628C119.778 43.8868 119.81 44.7188 119.874 45.3588C119.938 45.9988 120.034 46.5908 120.162 47.1348H117.114C117.066 46.9268 117.018 46.6788 116.97 46.3908C116.938 46.1028 116.906 45.7988 116.874 45.4788ZM139.831 42.4788L142.207 29.7348H145.711L141.847 47.1348H137.791L135.151 34.1748L132.511 47.1348H128.455L124.591 29.7348H128.143L130.735 42.4068L133.159 29.7348H137.167L139.831 42.4788ZM149.548 35.9268C149.916 35.2708 150.428 34.7748 151.084 34.4388C151.756 34.1028 152.492 33.9348 153.292 33.9348C154.844 33.9348 155.972 34.3828 156.676 35.2788C157.396 36.1588 157.756 37.3988 157.756 38.9988V47.1348H154.444V39.7188C154.444 39.3028 154.412 38.9108 154.348 38.5428C154.3 38.1588 154.196 37.8228 154.036 37.5348C153.876 37.2468 153.644 37.0228 153.34 36.8628C153.052 36.6868 152.676 36.5988 152.212 36.5988C151.668 36.5988 151.22 36.7028 150.868 36.9108C150.532 37.1188 150.26 37.3988 150.052 37.7508C149.86 38.0868 149.724 38.4868 149.644 38.9508C149.58 39.4148 149.548 39.9028 149.548 40.4148V47.1348H146.236V29.7348H149.548V35.9268ZM167.637 41.2308C166.709 41.3268 165.917 41.4308 165.261 41.5428C164.605 41.6548 164.069 41.7988 163.653 41.9748C163.237 42.1348 162.933 42.3428 162.741 42.5988C162.549 42.8388 162.453 43.1348 162.453 43.4868C162.453 43.9508 162.637 44.3508 163.005 44.6868C163.373 45.0228 163.933 45.1908 164.685 45.1908C165.725 45.1908 166.477 44.9028 166.941 44.3268C167.405 43.7508 167.637 42.9348 167.637 41.8788V41.2308ZM167.901 45.4788C167.437 46.1668 166.861 46.6708 166.173 46.9908C165.501 47.2948 164.677 47.4468 163.701 47.4468C163.077 47.4468 162.485 47.3588 161.925 47.1828C161.365 47.0068 160.869 46.7588 160.437 46.4388C160.021 46.1188 159.685 45.7268 159.429 45.2628C159.173 44.7828 159.045 44.2548 159.045 43.6788C159.045 42.9108 159.245 42.2708 159.645 41.7588C160.061 41.2308 160.637 40.7988 161.373 40.4628C162.125 40.1268 163.021 39.8548 164.061 39.6468C165.117 39.4388 166.277 39.2628 167.541 39.1188V38.8788C167.541 38.3828 167.477 37.9668 167.349 37.6308C167.221 37.2788 167.045 36.9988 166.821 36.7908C166.613 36.5828 166.357 36.4388 166.053 36.3588C165.749 36.2628 165.421 36.2148 165.069 36.2148C164.349 36.2148 163.749 36.3828 163.269 36.7188C162.805 37.0548 162.557 37.5828 162.525 38.3028H159.429C159.493 37.6628 159.669 37.0788 159.957 36.5508C160.261 36.0068 160.661 35.5428 161.157 35.1588C161.669 34.7588 162.261 34.4468 162.933 34.2228C163.621 33.9988 164.373 33.8868 165.189 33.8868C165.989 33.8868 166.733 33.9828 167.421 34.1748C168.109 34.3508 168.709 34.6548 169.221 35.0868C169.733 35.5188 170.133 36.1028 170.421 36.8388C170.709 37.5588 170.853 38.4628 170.853 39.5508C170.853 39.6468 170.845 39.8228 170.829 40.0788C170.829 40.3188 170.829 40.5988 170.829 40.9188C170.829 41.2388 170.821 41.5748 170.805 41.9268C170.805 42.2628 170.805 42.5748 170.805 42.8628C170.805 43.8868 170.837 44.7188 170.901 45.3588C170.965 45.9988 171.061 46.5908 171.189 47.1348H168.141C168.093 46.9268 168.045 46.6788 167.997 46.3908C167.965 46.1028 167.933 45.7988 167.901 45.4788ZM173.108 30.7188H176.42V34.2228H179.108V36.5028H176.42V43.1748C176.42 43.8308 176.54 44.2628 176.78 44.4708C177.036 44.6628 177.46 44.7588 178.052 44.7588H179.06V47.1348H176.636C175.9 47.1348 175.3 47.0788 174.836 46.9668C174.372 46.8388 174.012 46.6388 173.756 46.3668C173.5 46.0788 173.324 45.7188 173.228 45.2868C173.148 44.8388 173.108 44.2948 173.108 43.6548V36.5028H171.284V34.2228H173.108V30.7188ZM187.639 38.1108C187.511 37.5668 187.207 37.1268 186.727 36.7908C186.247 36.4388 185.599 36.2628 184.783 36.2628C184.111 36.2628 183.575 36.3748 183.175 36.5988C182.791 36.8068 182.599 37.1108 182.599 37.5108C182.599 37.8628 182.735 38.1668 183.007 38.4228C183.279 38.6628 183.751 38.8548 184.423 38.9988L186.151 39.3828C186.823 39.5268 187.447 39.6868 188.023 39.8628C188.615 40.0388 189.127 40.2708 189.559 40.5588C190.007 40.8308 190.359 41.1828 190.615 41.6148C190.871 42.0468 190.999 42.5988 190.999 43.2708C190.999 43.9268 190.839 44.5108 190.519 45.0228C190.215 45.5348 189.799 45.9748 189.271 46.3428C188.759 46.6948 188.159 46.9668 187.471 47.1588C186.783 47.3508 186.063 47.4468 185.311 47.4468C184.495 47.4468 183.735 47.3428 183.031 47.1348C182.343 46.9428 181.735 46.6548 181.207 46.2708C180.695 45.8708 180.271 45.3908 179.935 44.8308C179.615 44.2548 179.415 43.5988 179.335 42.8628H182.527C182.623 43.4868 182.895 44.0068 183.343 44.4228C183.807 44.8388 184.495 45.0468 185.407 45.0468C186.175 45.0468 186.767 44.9188 187.183 44.6628C187.615 44.4068 187.831 44.0468 187.831 43.5828C187.831 43.1028 187.615 42.7508 187.183 42.5268C186.751 42.3028 186.231 42.1268 185.623 41.9988L183.703 41.5908C183.079 41.4628 182.511 41.3028 181.999 41.1108C181.487 40.9028 181.047 40.6468 180.679 40.3428C180.327 40.0388 180.055 39.6788 179.863 39.2628C179.671 38.8308 179.575 38.3188 179.575 37.7268C179.575 37.1508 179.719 36.6308 180.007 36.1668C180.295 35.6868 180.687 35.2788 181.183 34.9428C181.679 34.6068 182.247 34.3508 182.887 34.1748C183.543 33.9828 184.231 33.8868 184.951 33.8868C185.639 33.8868 186.311 33.9668 186.967 34.1268C187.623 34.2868 188.207 34.5428 188.719 34.8948C189.247 35.2308 189.687 35.6708 190.039 36.2148C190.391 36.7428 190.623 37.3748 190.735 38.1108H187.639ZM200.078 41.2308C199.15 41.3268 198.358 41.4308 197.702 41.5428C197.046 41.6548 196.51 41.7988 196.094 41.9748C195.678 42.1348 195.374 42.3428 195.182 42.5988C194.99 42.8388 194.894 43.1348 194.894 43.4868C194.894 43.9508 195.078 44.3508 195.446 44.6868C195.814 45.0228 196.374 45.1908 197.126 45.1908C198.166 45.1908 198.918 44.9028 199.382 44.3268C199.846 43.7508 200.078 42.9348 200.078 41.8788V41.2308ZM200.342 45.4788C199.878 46.1668 199.302 46.6708 198.614 46.9908C197.942 47.2948 197.118 47.4468 196.142 47.4468C195.518 47.4468 194.926 47.3588 194.366 47.1828C193.806 47.0068 193.31 46.7588 192.878 46.4388C192.462 46.1188 192.126 45.7268 191.87 45.2628C191.614 44.7828 191.486 44.2548 191.486 43.6788C191.486 42.9108 191.686 42.2708 192.086 41.7588C192.502 41.2308 193.078 40.7988 193.814 40.4628C194.566 40.1268 195.462 39.8548 196.502 39.6468C197.558 39.4388 198.718 39.2628 199.982 39.1188V38.8788C199.982 38.3828 199.918 37.9668 199.79 37.6308C199.662 37.2788 199.486 36.9988 199.262 36.7908C199.054 36.5828 198.798 36.4388 198.494 36.3588C198.19 36.2628 197.862 36.2148 197.51 36.2148C196.79 36.2148 196.19 36.3828 195.71 36.7188C195.246 37.0548 194.998 37.5828 194.966 38.3028H191.87C191.934 37.6628 192.11 37.0788 192.398 36.5508C192.702 36.0068 193.102 35.5428 193.598 35.1588C194.11 34.7588 194.702 34.4468 195.374 34.2228C196.062 33.9988 196.814 33.8868 197.63 33.8868C198.43 33.8868 199.174 33.9828 199.862 34.1748C200.55 34.3508 201.15 34.6548 201.662 35.0868C202.174 35.5188 202.574 36.1028 202.862 36.8388C203.15 37.5588 203.294 38.4628 203.294 39.5508C203.294 39.6468 203.286 39.8228 203.27 40.0788C203.27 40.3188 203.27 40.5988 203.27 40.9188C203.27 41.2388 203.262 41.5748 203.246 41.9268C203.246 42.2628 203.246 42.5748 203.246 42.8628C203.246 43.8868 203.278 44.7188 203.342 45.3588C203.406 45.9988 203.502 46.5908 203.63 47.1348H200.582C200.534 46.9268 200.486 46.6788 200.438 46.3908C200.406 46.1028 200.374 45.7988 200.342 45.4788ZM211.309 44.9028C212.221 44.9028 212.925 44.5188 213.421 43.7508C213.933 42.9828 214.189 41.9668 214.189 40.7028C214.189 39.4388 213.933 38.4228 213.421 37.6548C212.925 36.8708 212.221 36.4788 211.309 36.4788C210.397 36.4788 209.661 36.8548 209.101 37.6068C208.557 38.3588 208.285 39.3828 208.285 40.6788C208.285 42.0068 208.557 43.0468 209.101 43.7988C209.661 44.5348 210.397 44.9028 211.309 44.9028ZM205.093 51.3348V34.2228H208.405V35.8788C208.757 35.2708 209.261 34.7988 209.917 34.4628C210.573 34.1108 211.309 33.9348 212.125 33.9348C212.925 33.9348 213.661 34.0948 214.333 34.4148C215.021 34.7348 215.605 35.1908 216.085 35.7828C216.581 36.3748 216.965 37.0868 217.237 37.9188C217.525 38.7508 217.669 39.6708 217.669 40.6788C217.669 41.7188 217.525 42.6548 217.237 43.4868C216.965 44.3188 216.573 45.0308 216.061 45.6228C215.565 46.1988 214.973 46.6468 214.285 46.9668C213.613 47.2868 212.885 47.4468 212.101 47.4468C211.429 47.4468 210.749 47.3028 210.061 47.0148C209.373 46.7268 208.821 46.2228 208.405 45.5028V51.3348H205.093ZM225.067 44.9028C225.979 44.9028 226.683 44.5188 227.179 43.7508C227.691 42.9828 227.947 41.9668 227.947 40.7028C227.947 39.4388 227.691 38.4228 227.179 37.6548C226.683 36.8708 225.979 36.4788 225.067 36.4788C224.155 36.4788 223.419 36.8548 222.859 37.6068C222.315 38.3588 222.043 39.3828 222.043 40.6788C222.043 42.0068 222.315 43.0468 222.859 43.7988C223.419 44.5348 224.155 44.9028 225.067 44.9028ZM218.851 51.3348V34.2228H222.163V35.8788C222.515 35.2708 223.019 34.7988 223.675 34.4628C224.331 34.1108 225.067 33.9348 225.883 33.9348C226.683 33.9348 227.419 34.0948 228.091 34.4148C228.779 34.7348 229.363 35.1908 229.843 35.7828C230.339 36.3748 230.723 37.0868 230.995 37.9188C231.283 38.7508 231.427 39.6708 231.427 40.6788C231.427 41.7188 231.283 42.6548 230.995 43.4868C230.723 44.3188 230.331 45.0308 229.819 45.6228C229.323 46.1988 228.731 46.6468 228.043 46.9668C227.371 47.2868 226.643 47.4468 225.859 47.4468C225.187 47.4468 224.507 47.3028 223.819 47.0148C223.131 46.7268 222.579 46.2228 222.163 45.5028V51.3348H218.851Z" fill="#1D1D1D"/>
<path d="M259.318 24.791C256.703 24.7914 254.134 25.4459 251.865 26.6894C249.596 27.9329 247.707 29.7223 246.384 31.88C245.062 34.0377 244.352 36.4887 244.325 38.9898C244.299 41.4908 244.957 43.9551 246.233 46.1379L244.94 50.4551C244.834 50.793 244.826 51.1519 244.916 51.4938C245.007 51.8358 245.192 52.148 245.453 52.3973C245.713 52.6467 246.04 52.824 246.397 52.9103C246.755 52.9967 247.13 52.9889 247.483 52.8879L251.997 51.6504C253.996 52.7214 256.226 53.3397 258.515 53.4577C260.804 53.5757 263.09 53.1904 265.199 52.3313C267.308 51.4721 269.182 50.1621 270.679 48.5018C272.176 46.8415 273.255 44.8751 273.833 42.7537C274.411 40.6323 274.473 38.4123 274.015 36.2643C273.556 34.1163 272.589 32.0975 271.187 30.3629C269.785 28.6283 267.987 27.2241 265.929 26.2582C263.872 25.2923 261.61 24.7904 259.318 24.791ZM259.318 51.791C256.943 51.7903 254.612 51.1783 252.57 50.0191C252.43 49.9475 252.273 49.9089 252.114 49.9066C252.035 49.9021 251.955 49.9116 251.879 49.9348L246.998 51.2707C246.947 51.2857 246.892 51.2872 246.841 51.2749C246.789 51.2625 246.741 51.2369 246.704 51.2008C246.666 51.1646 246.639 51.1193 246.626 51.0697C246.613 51.02 246.615 50.968 246.63 50.9191L248.027 46.2504C248.06 46.1403 248.069 46.0249 248.054 45.9112C248.039 45.7976 248 45.6881 247.939 45.5895C246.45 43.1875 245.833 40.3819 246.185 37.6098C246.537 34.8377 247.837 32.2547 249.884 30.2632C251.93 28.2716 254.608 26.9833 257.499 26.599C260.391 26.2146 263.334 26.7558 265.871 28.1382C268.407 29.5206 270.394 31.6666 271.523 34.2419C272.652 36.8173 272.858 39.6773 272.11 42.3766C271.363 45.0759 269.703 47.4628 267.389 49.1656C265.075 50.8685 262.237 51.7915 259.318 51.791ZM266.889 41.4973L263.876 39.852C263.558 39.6808 263.199 39.5932 262.835 39.5981C262.471 39.6031 262.115 39.7004 261.803 39.8801L259.921 40.9629C258.851 40.4185 257.976 39.5812 257.407 38.5582L258.539 36.7582C258.727 36.4597 258.828 36.1189 258.834 35.7706C258.839 35.4222 258.747 35.0788 258.568 34.7754L256.848 31.8926C256.681 31.6159 256.441 31.3859 256.152 31.2255C255.863 31.0651 255.536 30.98 255.202 30.9785C253.878 30.9785 252.609 31.4803 251.672 32.3739C250.735 33.2676 250.207 34.4801 250.203 35.7457C250.201 37.3351 250.527 38.9092 251.161 40.3781C251.796 41.847 252.727 43.1819 253.901 44.3064C255.075 45.4309 256.47 46.3229 258.005 46.9316C259.54 47.5402 261.185 47.8535 262.846 47.8535H262.861C264.184 47.8498 265.452 47.3444 266.386 46.4482C267.32 45.5519 267.845 44.3379 267.845 43.0723C267.843 42.7528 267.754 42.4392 267.587 42.1629C267.419 41.8865 267.179 41.657 266.889 41.4973ZM262.861 46.166H262.846C259.96 46.1623 257.193 45.0628 255.153 43.109C253.113 41.1552 251.967 38.5069 251.967 35.7457C251.971 34.9276 252.314 34.1443 252.92 33.5672C253.526 32.99 254.346 32.666 255.202 32.666C255.247 32.6696 255.289 32.6897 255.319 32.7223L257.039 35.6051C257.063 35.6491 257.074 35.6982 257.071 35.7476C257.069 35.797 257.053 35.8448 257.025 35.8863L255.657 38.0941C255.58 38.2078 255.534 38.3383 255.524 38.4736C255.513 38.6089 255.539 38.7444 255.598 38.8676C256.402 40.5644 257.823 41.9238 259.597 42.6926C259.726 42.7494 259.868 42.774 260.009 42.7642C260.151 42.7544 260.287 42.7104 260.406 42.6363L262.714 41.3285C262.757 41.3017 262.808 41.2862 262.859 41.2837C262.911 41.2813 262.962 41.2919 263.008 41.3145L266.022 42.9598C266.056 42.9886 266.077 43.0289 266.081 43.0723C266.081 43.8903 265.742 44.6751 265.139 45.2549C264.535 45.8347 263.716 46.1623 262.861 46.166Z" fill="#1D1D1D" stroke="black"/>
<rect x="2.5" y="2.13477" width="290.091" height="74" rx="37" stroke="#1D1D1D" stroke-width="4"/>
</svg>
